Coordinates
version=1
nRows=49
nColumns=12
inDegrees=yes

Units are S.I. units (second, meters, Newtons, ...)
Angles are in degrees

endheader
time	SC_y	SC_z	SC_x	AC_y	AC_z	AC_x	GH_y	GH_z	GH_yy	EL_x	PS_y
       0.0              -29.71          12.13          73.86          39.72         -10.45         -4.099          102.6         -4.739          83.25          105.1          99.74
    0.0444              -29.71          12.13          73.86          39.72         -10.45         -4.096          102.6         -4.738          83.21          105.1          99.73
    0.0888              -29.71          12.13          73.86          39.73         -10.45         -4.093          102.6         -4.736          83.17          105.1          99.73
    0.1332              -29.71          12.13          73.85          39.73         -10.45          -4.09          102.6         -4.735          83.13          105.1          99.72
    0.1776              -29.71          12.12          73.84          39.74         -10.45         -4.086          102.6         -4.733          83.08          105.1          99.72
     0.222              -29.72          12.12          73.84          39.74         -10.45         -4.082          102.6         -4.732          83.04          105.1          99.71
    0.2664              -29.72          12.12          73.83          39.75         -10.45         -4.078          102.6          -4.73          82.99          105.1          99.71
    0.3108              -29.72          12.11          73.83          39.76         -10.45         -4.074          102.6         -4.728          82.93          105.1           99.7
    0.3552              -29.72          12.11          73.82          39.76         -10.45         -4.069          102.6         -4.726          82.87          105.1           99.7
    0.3996              -29.73          12.11          73.81          39.77         -10.45         -4.064          102.6         -4.724          82.81          105.1          99.69
     0.444              -29.73           12.1           73.8          39.78         -10.45         -4.059          102.6         -4.722          82.74          105.0          99.68
    0.4884              -29.73           12.1          73.79          39.79         -10.45         -4.053          102.6          -4.72          82.67          105.0          99.67
    0.5328              -29.74          12.09          73.78          39.79         -10.45         -4.047          102.6         -4.717          82.59          105.0          99.67
    0.5772              -29.74          12.09          73.77           39.8         -10.45          -4.04          102.6         -4.714          82.51          105.0          99.66
    0.6216              -29.75          12.08          73.76          39.81         -10.45         -4.033          102.6         -4.711          82.42          105.0          99.65
     0.666              -29.75          12.08          73.75          39.82         -10.45         -4.025          102.6         -4.708          82.32          105.0          99.64
    0.7104              -29.76          12.07          73.74          39.84         -10.45         -4.017          102.6         -4.704          82.21          104.9          99.62
    0.7548              -29.76          12.06          73.72          39.85         -10.44         -4.007          102.6           -4.7           82.1          104.9          99.61
    0.7992              -29.77          12.06          73.71          39.86         -10.44         -3.997          102.6         -4.696          81.97          104.9           99.6
    0.8436              -29.77          12.05          73.69          39.88         -10.44         -3.986          102.6         -4.691          81.83          104.9          99.58
     0.888              -29.78          12.04          73.67           39.9         -10.44         -3.974          102.6         -4.686          81.68          104.9          99.57
    0.9324              -29.79          12.03          73.65          39.92         -10.44         -3.961          102.6         -4.681          81.51          104.8          99.55
    0.9768               -29.8          12.02          73.63          39.94         -10.44         -3.946          102.6         -4.674          81.32          104.8          99.53
     1.021              -29.81          12.01           73.6          39.96         -10.44         -3.929          102.6         -4.668          81.12          104.8           99.5
     1.066              -29.82          11.99          73.57          39.99         -10.44         -3.911          102.6          -4.66          80.89          104.7          99.48
      1.11              -29.83          11.98          73.54          40.01         -10.44         -3.891          102.6         -4.651          80.63          104.7          99.45
     1.154              -29.85          11.96          73.51          40.05         -10.43         -3.868          102.6         -4.642          80.35          104.6          99.42
     1.199              -29.86          11.94          73.47          40.08         -10.43         -3.842          102.6         -4.631          80.02          104.6          99.39
     1.243              -29.88          11.92          73.42          40.12         -10.43         -3.813          102.5         -4.619          79.66          104.5          99.35
     1.288               -29.9           11.9          73.37          40.17         -10.43          -3.78          102.5         -4.605          79.25          104.4           99.3
     1.332              -29.92          11.87          73.31          40.22         -10.42         -3.743          102.5         -4.589          78.78          104.4          99.25
     1.376              -29.95          11.84          73.25          40.28         -10.42         -3.699          102.5         -4.571          78.23          104.3          99.19
     1.421              -29.98           11.8          73.17          40.35         -10.42          -3.65          102.5          -4.55          77.61          104.2          99.12
     1.465              -30.02          11.76          73.08          40.43         -10.41         -3.592          102.5         -4.526          76.88          104.0          99.04
      1.51              -30.06          11.71          72.97          40.53         -10.41         -3.524          102.4         -4.497          76.03          103.9          98.95
     1.554              -30.11          11.65          72.85          40.64          -10.4         -3.444          102.4         -4.464          75.03          103.7          98.84
     1.598              -30.16          11.58           72.7          40.78          -10.4         -3.349          102.4         -4.424          73.84          103.5          98.71
     1.643              -30.23          11.49          72.53          40.94         -10.39         -3.236          102.3         -4.376          72.42          103.3          98.56
     1.687              -30.32          11.39          72.31          41.13         -10.38         -3.098          102.3         -4.318          70.69          103.0          98.37
     1.732              -30.42          11.27          72.05          41.37         -10.36          -2.93          102.2         -4.248          68.58          102.6          98.14
     1.776              -30.55          11.12          71.73          41.66         -10.35         -2.723          102.2          -4.16          65.98          102.2          97.86
      1.82               -30.7          10.92          71.33          42.02         -10.33         -2.464          102.1         -4.052          62.73          101.6           97.5
     1.865               -30.9          10.68          70.83          42.48         -10.31         -2.138          102.0         -3.915          58.65          100.9          97.06
     1.909              -31.16          10.38          70.19          43.06         -10.27         -1.724          101.8         -3.741          53.45          99.99          96.49
     1.954              -31.48          9.985          69.36          43.81         -10.23         -1.194          101.6         -3.518           46.8          98.85          95.77
     1.998               -31.9          9.482          68.31          44.77         -10.18        -0.5132          101.4         -3.232          38.26          97.38          94.84
     2.042              -32.43           8.84          66.96          45.99         -10.12         0.3559          101.1         -2.866          27.36           95.5          93.65
     2.087              -33.09          8.033          65.27          47.53         -10.04          1.449          100.7         -2.407          13.65          93.13          92.16
     2.131              -33.91          7.049          63.21           49.4         -9.939           2.78          100.2         -1.847         -3.057          90.25          90.34
